<svg width="332" height="38" viewBox="0 0 332 38" fill="none" xmlns="http://www.w3.org/2000/svg">
<path d="M49.7905 12.4999C51.0115 13.7202 51.0115 15.7061 49.7905 16.9264L47.0553 19.6159L47.0275 19.4618C46.8278 18.3564 46.302 17.3534 45.5082 16.5601C44.9103 15.9638 44.2038 15.5229 43.4075 15.25C42.9133 15.7465 42.6415 16.3971 42.6415 17.0818C42.6415 17.2207 42.6542 17.3648 42.6794 17.5088C43.118 17.6667 43.5061 17.9105 43.8322 18.2364C45.0532 19.4568 45.0532 21.4426 43.8322 22.663L41.4509 25.043C40.8404 25.6531 40.039 25.9576 39.2364 25.9576C38.4338 25.9576 37.6324 25.6531 37.0219 25.043C35.8009 23.8227 35.8009 21.8368 37.0219 20.6164L39.7571 17.9282L39.7849 18.0823C39.9834 19.1851 40.5092 20.1882 41.3055 20.9828C41.9046 21.5816 42.5682 21.9795 43.3632 22.2511L43.5099 22.1046C43.9548 21.6599 44.1987 21.0687 44.1987 20.4383C44.1987 20.2981 44.1861 20.1579 44.1621 20.0202C43.7032 19.8686 43.3253 19.6526 42.9815 19.309C42.486 18.8137 42.1776 18.1808 42.0917 17.4797C42.0854 17.4292 42.0816 17.3799 42.0765 17.3294C42.0083 16.416 42.3382 15.5242 42.9815 14.8824L45.3628 12.5024C45.9531 11.9124 46.7393 11.5865 47.5773 11.5865C48.4153 11.5865 49.2015 11.9112 49.7918 12.5024L49.7905 12.4999ZM62.2255 18.791C62.2255 27.4988 55.1371 34.582 46.4258 34.582H15.8504C7.13913 34.582 0.0507812 27.4988 0.0507812 18.791C0.0507812 10.0832 7.13913 3 15.8504 3H46.4258C55.1384 3 62.2255 10.0845 62.2255 18.791ZM30.4998 26.7105C30.7488 26.4086 29.5986 25.5584 29.3635 25.2464C28.8857 24.7284 28.8832 23.9831 28.5609 23.378C27.7722 21.5513 26.8659 19.7385 25.5981 18.1922C24.2583 16.5007 22.6051 15.101 21.1528 13.513C20.0746 12.4051 19.7864 10.8273 18.8346 9.63601C17.5226 7.6994 13.3743 7.17135 12.7663 9.90635C12.7688 9.99226 12.7423 10.0466 12.6677 10.1009C12.3315 10.3447 12.032 10.6239 11.7804 10.9612C11.1649 11.8177 11.0701 13.2705 11.8386 14.0398C11.8638 13.6343 11.8777 13.2515 12.1988 12.961C12.7929 13.4701 13.6903 13.6507 14.3791 13.2705C15.901 15.442 15.5218 18.4461 16.7301 20.7857C17.0638 21.339 17.4 21.9037 17.8285 22.3888C18.1761 22.9295 19.3769 23.5675 19.4477 24.0677C19.4603 24.9268 19.3592 25.8654 19.9229 26.5842C20.1884 27.1223 19.5361 27.663 19.0103 27.5961C18.3278 27.6896 17.4948 27.1375 16.897 27.4773C16.6859 27.706 16.2726 27.4533 16.0906 27.7704C16.0274 27.9346 15.6861 28.1658 15.8896 28.3237C16.1158 28.1519 16.3257 27.9725 16.6303 28.0749C16.5848 28.3225 16.7807 28.3578 16.9362 28.4298C16.9311 28.5979 16.8325 28.7697 16.9614 28.9124C17.1118 28.7608 17.2016 28.5461 17.4405 28.4829C18.2343 29.5403 19.0419 27.4129 20.7597 28.3705C20.4108 28.3528 20.1011 28.397 19.866 28.6838C19.8079 28.7482 19.7586 28.824 19.861 28.9074C20.7875 28.3098 20.7824 29.112 21.3841 28.8657C21.8467 28.6244 22.3068 28.3225 22.8566 28.4084C22.3219 28.5625 22.3004 28.992 21.987 29.3546C21.9339 29.4101 21.9086 29.4733 21.9705 29.5655C23.0803 29.472 23.1713 29.1032 24.0675 28.6509C24.7361 28.2429 25.4022 29.232 25.9811 28.6686C26.1088 28.5461 26.2832 28.5877 26.4412 28.5713C26.239 27.4937 24.0157 28.7684 24.051 27.3232C24.7665 26.8368 24.6021 25.9058 24.6502 25.1541C25.473 25.6102 26.3881 25.8755 27.1945 26.3113C27.6015 26.9682 28.2398 27.8361 29.0905 27.7792C29.1132 27.7136 29.1335 27.6554 29.1575 27.5885C29.4153 27.6327 29.7465 27.8032 29.8881 27.4773C30.2736 27.8803 30.8398 27.8601 31.3442 27.7565C31.717 27.4533 30.6426 27.0213 30.4986 26.7092L30.4998 26.7105ZM53.0756 14.7131C53.0756 13.2427 52.5043 11.8619 51.4666 10.8248C50.4288 9.78761 49.0473 9.2166 47.5748 9.2166C46.1023 9.2166 44.7207 9.78761 43.683 10.8248L41.3017 13.2048C40.7456 13.7606 40.3234 14.4137 40.0466 15.1452L40.0302 15.1869L39.9872 15.1995C39.1226 15.4661 38.3604 15.9234 37.7221 16.5613L35.3408 18.9413C33.1959 21.0864 33.1959 24.5756 35.3408 26.7194C36.3785 27.7565 37.7601 28.3275 39.2313 28.3275C40.7026 28.3275 42.0854 27.7565 43.1231 26.7194L45.5044 24.3393C46.058 23.786 46.4777 23.1354 46.7545 22.4052L46.7709 22.3636L46.8139 22.3497C47.6633 22.0894 48.4469 21.617 49.0827 20.9828L51.464 18.6028C52.5017 17.5656 53.0731 16.1849 53.0731 14.7131H53.0756ZM21.8391 24.9305C21.6343 25.7289 21.5673 27.0895 20.5284 27.1287C20.4424 27.5898 20.8481 27.7628 21.216 27.615C21.5812 27.447 21.7544 27.7477 21.877 28.0471C22.4407 28.1292 23.275 27.8588 23.3066 27.1918C22.4648 26.7067 22.2044 25.7845 21.8378 24.9305H21.8391Z" fill="white"/>
<path d="M74.4805 10.078V29.2293H87.6801V26.3377H77.4773V10.078H74.4805Z" fill="white"/>
<path d="M141.534 10.078C138.939 10.078 136.737 11.0128 135.166 12.7827C133.609 14.5361 132.787 16.997 132.787 19.8987C132.787 25.8652 136.231 29.7207 141.56 29.7207C145.316 29.7207 148.223 27.7576 149.339 24.4706L149.609 23.6734L146.635 22.5441L146.361 23.4321C145.696 25.581 143.991 26.7647 141.559 26.7647C138.086 26.7647 135.928 24.1345 135.928 19.9C135.928 15.6655 138.106 13.0353 141.612 13.0353C144.043 13.0353 145.443 13.9879 146.156 16.1228L146.467 17.0538L149.363 15.6958L149.097 14.9505C147.965 11.7645 145.35 10.0793 141.533 10.0793L141.534 10.078Z" fill="white"/>
<path d="M94.7163 14.6233C91.8395 14.6233 89.6882 15.9712 88.8148 18.3209C88.7592 18.4712 88.5911 18.9248 88.5911 18.9248L91.0571 20.519L91.3921 19.6461C91.9634 18.1579 93.0201 17.4644 94.7163 17.4644C96.4125 17.4644 97.3833 18.2868 97.3656 19.9063C97.3656 19.972 97.3605 20.1704 97.3605 20.1704C97.3605 20.1704 95.1157 20.5342 94.1905 20.73C90.2431 21.5638 88.5898 23.0696 88.5898 25.533C88.5898 26.8455 89.3192 28.2667 90.6501 29.0638C91.4489 29.5414 92.4917 29.722 93.6432 29.722C94.4003 29.722 95.1359 29.6096 95.8172 29.4024C97.3656 28.8882 97.7979 27.8776 97.7979 27.8776V29.199H100.362V19.7522C100.362 16.541 98.2516 14.6233 94.7163 14.6233ZM97.3744 24.7043C97.3744 25.6972 96.2925 27.0957 93.7721 27.0957C93.0605 27.0957 92.5562 26.9074 92.22 26.627C91.77 26.2518 91.6221 25.7124 91.684 25.2361C91.7106 25.0289 91.8357 24.583 92.2996 24.1964C92.7736 23.801 93.6116 23.518 94.9059 23.2363C95.9702 23.0052 97.3757 22.75 97.3757 22.75V24.7055L97.3744 24.7043Z" fill="white"/>
<path d="M109.843 14.6221C109.487 14.6221 109.139 14.6473 108.802 14.6941C106.505 15.039 105.833 16.205 105.833 16.205L105.835 15.0288H102.961V29.2016H105.958V21.3465C105.958 18.6772 107.906 17.4619 109.716 17.4619C111.672 17.4619 112.623 18.513 112.623 20.677V29.2016H115.62V20.2651C115.62 16.7835 113.406 14.6221 109.845 14.6221H109.843Z" fill="white"/>
<path d="M193.646 14.6221C193.29 14.6221 192.942 14.6473 192.604 14.6941C190.308 15.039 189.635 16.205 189.635 16.205V15.0276H186.764V29.2016H189.761V21.3465C189.761 18.6772 191.708 17.4619 193.518 17.4619C195.475 17.4619 196.425 18.513 196.425 20.677V29.2016H199.422V20.2651C199.422 16.7835 197.209 14.6221 193.647 14.6221H193.646Z" fill="white"/>
<path d="M128.125 15.0288V16.4879C128.125 16.4879 127.39 14.6221 124.05 14.6221C119.899 14.6221 117.32 17.4847 117.32 22.0944C117.32 24.6955 118.152 26.7432 119.619 28.0368C120.761 29.0424 122.285 29.5578 124.1 29.5932C125.363 29.6172 126.181 29.2736 126.691 28.9489C127.672 28.3249 128.036 27.7324 128.036 27.7324C128.036 27.7324 127.995 28.196 127.919 28.8239C127.864 29.2786 127.762 29.5983 127.762 29.5983C127.306 31.2216 125.971 32.1602 124.024 32.1602C122.078 32.1602 120.899 31.5197 120.665 30.2577L117.751 31.1268C118.254 33.5523 120.532 35 123.844 35C126.095 35 127.859 34.3886 129.089 33.1809C130.329 31.9631 130.959 30.2084 130.959 27.9648V15.0276H128.125V15.0288ZM127.935 22.2232C127.935 25.058 126.55 26.7508 124.229 26.7508C121.743 26.7508 120.317 25.053 120.317 22.0944C120.317 19.1358 121.743 17.4632 124.229 17.4632C126.494 17.4632 127.914 19.1484 127.935 21.8619V22.2232Z" fill="white"/>
<path d="M158.242 14.622C157.913 14.622 157.593 14.6435 157.282 14.6839C155.022 15.0364 154.358 16.1872 154.358 16.1872V15.8499H154.356V10.078H151.359V29.2028H154.356V21.3477C154.356 18.6607 156.304 17.4379 158.114 17.4379C160.071 17.4379 161.021 18.4889 161.021 20.6529V29.2028H164.018V20.2411C164.018 16.829 161.75 14.6233 158.243 14.6233L158.242 14.622Z" fill="white"/>
<path d="M182.497 13.9651C183.57 13.9651 184.44 13.0958 184.44 12.0234C184.44 10.9511 183.57 10.0818 182.497 10.0818C181.424 10.0818 180.555 10.9511 180.555 12.0234C180.555 13.0958 181.424 13.9651 182.497 13.9651Z" fill="white"/>
<path d="M181.009 15.0212V22.2143C180.155 21.512 179.163 20.9826 178.038 20.6656V19.7522C178.038 16.541 175.927 14.6233 172.392 14.6233C169.515 14.6233 167.364 15.9712 166.491 18.3209C166.435 18.4712 166.267 18.9248 166.267 18.9248L168.733 20.519L169.068 19.6461C169.639 18.1579 170.696 17.4644 172.392 17.4644C174.088 17.4644 175.059 18.2868 175.041 19.9063C175.041 19.9164 175.041 20.0516 175.041 20.2676C173.772 20.2323 172.592 20.3548 171.531 20.6037C170.133 20.9195 167.537 21.7217 166.609 23.8073C166.603 23.8212 166.467 24.1813 166.467 24.1813C166.333 24.5956 166.266 25.0454 166.266 25.533C166.266 26.8455 166.995 28.2667 168.326 29.0638C169.125 29.5414 170.167 29.722 171.319 29.722C172.062 29.722 172.785 29.6134 173.456 29.4138C175.035 28.9034 175.474 27.8776 175.474 27.8776V29.2003H178.038V24.871C177.318 24.4213 176.236 24.156 175.049 24.1585C175.049 24.4933 175.049 24.7055 175.049 24.7055C175.049 25.6985 173.967 27.0969 171.447 27.0969C170.735 27.0969 170.231 26.9087 169.894 26.6282C169.445 26.253 169.297 25.7136 169.359 25.2374C169.385 25.0302 169.51 24.5843 169.974 24.1977L169.969 24.1838C171.033 23.3134 173.125 22.966 175.046 23.0418V23.0456C176.682 23.105 177.906 23.4258 178.779 24.0271C179.017 24.1775 179.24 24.3455 179.446 24.5299C180.324 25.317 180.676 26.2859 180.828 26.8518C181.074 27.7753 181.009 29.1978 181.009 29.1978H183.99V15.0238H181.009V15.0212Z" fill="white"/>
<path d="M318.785 29.6052C317.389 29.6052 316.185 29.2905 315.173 28.6611C314.169 28.0316 313.394 27.1331 312.846 25.9655C312.299 24.7978 312.025 23.4112 312.025 21.8057C312.025 20.1911 312.294 18.8 312.833 17.6323C313.38 16.4647 314.155 15.5707 315.159 14.9504C316.171 14.3209 317.38 14.0062 318.785 14.0062C320.199 14.0062 321.408 14.3255 322.411 14.9641C323.414 15.6026 324.181 16.5285 324.71 17.7418C325.248 18.955 325.517 20.4191 325.517 22.1341H324.286V21.751C324.231 19.6255 323.729 17.9972 322.78 16.866C321.841 15.7258 320.509 15.1556 318.785 15.1556C317.033 15.1556 315.674 15.7394 314.707 16.9071C313.74 18.0656 313.257 19.6985 313.257 21.8057C313.257 23.913 313.74 25.5504 314.707 26.718C315.674 27.8766 317.033 28.4558 318.785 28.4558C320.007 28.4558 321.079 28.1685 322.001 27.5938C322.922 27.0191 323.656 26.1935 324.204 25.1171L325.161 25.6644C324.559 26.9233 323.706 27.8948 322.603 28.579C321.499 29.2631 320.226 29.6052 318.785 29.6052ZM312.764 22.1341V20.9847H324.806V22.1341H312.764Z" fill="white"/>
<path d="M304.98 29.6052C303.512 29.6052 302.28 29.2768 301.286 28.62C300.291 27.9632 299.539 27.051 299.028 25.8834C298.517 24.7066 298.248 23.3474 298.221 21.8057C298.248 20.2276 298.517 18.8547 299.028 17.687C299.548 16.5194 300.305 15.6163 301.299 14.9777C302.294 14.3301 303.521 14.0062 304.98 14.0062C306.349 14.0062 307.566 14.3346 308.634 14.9914C309.71 15.6391 310.472 16.5331 310.919 17.6734L309.824 18.1386C309.414 17.1899 308.78 16.4555 307.922 15.9356C307.074 15.4156 306.093 15.1556 304.98 15.1556C303.74 15.1556 302.713 15.4384 301.902 16.004C301.09 16.5604 300.483 17.3404 300.082 18.3438C299.68 19.3382 299.47 20.4921 299.452 21.8057C299.48 23.8126 299.954 25.4227 300.875 26.6359C301.797 27.8492 303.165 28.4558 304.98 28.4558C306.066 28.4558 307.028 28.205 307.867 27.7032C308.707 27.2015 309.35 26.4672 309.797 25.5002L310.919 25.9928C310.308 27.1787 309.5 28.0773 308.497 28.6884C307.493 29.2996 306.321 29.6052 304.98 29.6052Z" fill="white"/>
<path d="M294.876 29.1947V21.3678C294.876 20.3096 294.767 19.3974 294.548 18.6311C294.338 17.8557 294.023 17.2172 293.604 16.7155C293.184 16.2046 292.673 15.826 292.071 15.5797C291.478 15.3334 290.799 15.2103 290.032 15.2103C289.129 15.2103 288.359 15.3699 287.72 15.6892C287.091 15.9994 286.58 16.4281 286.187 16.9754C285.795 17.5228 285.508 18.1522 285.325 18.8637C285.143 19.5753 285.052 20.3279 285.052 21.1215L283.984 21.1489C283.984 19.4612 284.263 18.102 284.819 17.0712C285.376 16.0313 286.11 15.2741 287.022 14.7998C287.943 14.3254 288.947 14.0883 290.032 14.0883C290.781 14.0883 291.465 14.1932 292.085 14.403C292.714 14.6128 293.271 14.9184 293.754 15.3198C294.247 15.712 294.662 16.1955 295 16.7702C295.337 17.3449 295.592 18.0017 295.766 18.7406C295.939 19.4704 296.026 20.2731 296.026 21.1489V29.1947H294.876ZM283.902 29.1947V14.4167H284.97V17.427H285.052V29.1947H283.902Z" fill="white"/>
<path d="M275.101 29.6052C273.706 29.6052 272.502 29.2905 271.489 28.6611C270.486 28.0316 269.71 27.1331 269.163 25.9655C268.615 24.7978 268.342 23.4112 268.342 21.8057C268.342 20.1911 268.611 18.8 269.149 17.6323C269.696 16.4647 270.472 15.5707 271.475 14.9504C272.488 14.3209 273.697 14.0062 275.101 14.0062C276.515 14.0062 277.724 14.3255 278.727 14.9641C279.731 15.6026 280.497 16.5285 281.026 17.7418C281.564 18.955 281.834 20.4191 281.834 22.1341H280.602V21.751C280.547 19.6255 280.046 17.9972 279.097 16.866C278.157 15.7258 276.825 15.1556 275.101 15.1556C273.35 15.1556 271.991 15.7394 271.024 16.9071C270.057 18.0656 269.573 19.6985 269.573 21.8057C269.573 23.913 270.057 25.5504 271.024 26.718C271.991 27.8766 273.35 28.4558 275.101 28.4558C276.324 28.4558 277.396 28.1685 278.317 27.5938C279.238 27.0191 279.973 26.1935 280.52 25.1171L281.478 25.6644C280.876 26.9233 280.023 27.8948 278.919 28.579C277.815 29.2631 276.543 29.6052 275.101 29.6052ZM269.081 22.1341V20.9847H281.122V22.1341H269.081Z" fill="white"/>
<path d="M260.811 29.1947V14.4167H261.878V17.947L261.522 17.4817C261.677 17.0804 261.873 16.7064 262.11 16.3597C262.348 16.0131 262.58 15.7303 262.808 15.5113C263.21 15.1191 263.684 14.8226 264.231 14.6219C264.788 14.4121 265.344 14.2935 265.901 14.2662C266.457 14.2297 266.95 14.2798 267.379 14.4167V15.5113C266.767 15.3745 266.12 15.3517 265.436 15.4429C264.751 15.525 264.113 15.8397 263.52 16.3871C263 16.8706 262.63 17.427 262.411 18.0564C262.202 18.6859 262.074 19.3381 262.028 20.0132C261.983 20.6791 261.96 21.3131 261.96 21.9151V29.1947H260.811Z" fill="white"/>
<path d="M251.609 29.6052C250.213 29.6052 249.009 29.2905 247.997 28.6611C246.993 28.0316 246.218 27.1331 245.671 25.9655C245.123 24.7978 244.85 23.4112 244.85 21.8057C244.85 20.1911 245.119 18.8 245.657 17.6323C246.204 16.4647 246.98 15.5707 247.983 14.9504C248.996 14.3209 250.204 14.0062 251.609 14.0062C253.023 14.0062 254.232 14.3255 255.235 14.9641C256.239 15.6026 257.005 16.5285 257.534 17.7418C258.072 18.955 258.341 20.4191 258.341 22.1341H257.11V21.751C257.055 19.6255 256.553 17.9972 255.605 16.866C254.665 15.7258 253.333 15.1556 251.609 15.1556C249.858 15.1556 248.498 15.7394 247.532 16.9071C246.565 18.0656 246.081 19.6985 246.081 21.8057C246.081 23.913 246.565 25.5504 247.532 26.718C248.498 27.8766 249.858 28.4558 251.609 28.4558C252.832 28.4558 253.903 28.1685 254.825 27.5938C255.746 27.0191 256.48 26.1935 257.028 25.1171L257.986 25.6644C257.384 26.9233 256.531 27.8948 255.427 28.579C254.323 29.2631 253.05 29.6052 251.609 29.6052ZM245.589 22.1341V20.9847H257.63V22.1341H245.589Z" fill="white"/>
<path d="M239.065 29.1947V12.7473C239.065 12.3642 239.088 12.013 239.133 11.6937C239.188 11.3653 239.279 11.0643 239.407 10.7906C239.535 10.5169 239.712 10.257 239.94 10.0107C240.159 9.78261 240.401 9.60017 240.666 9.46333C240.939 9.3265 241.24 9.23072 241.569 9.17598C241.897 9.11213 242.258 9.0802 242.65 9.0802H244.565V10.1201H242.787C241.929 10.1201 241.286 10.3254 240.857 10.7359C240.429 11.1464 240.214 11.8534 240.214 12.8568V29.1947H239.065ZM236.383 15.5661V14.4167H244.565V15.5661H236.383Z" fill="white"/>
<path d="M228.275 29.6052C226.879 29.6052 225.675 29.2905 224.663 28.6611C223.659 28.0316 222.884 27.1331 222.337 25.9655C221.789 24.7978 221.516 23.4112 221.516 21.8057C221.516 20.1911 221.785 18.8 222.323 17.6323C222.87 16.4647 223.646 15.5707 224.649 14.9504C225.662 14.3209 226.87 14.0062 228.275 14.0062C229.689 14.0062 230.898 14.3255 231.901 14.9641C232.905 15.6026 233.671 16.5285 234.2 17.7418C234.738 18.955 235.007 20.4191 235.007 22.1341H233.776V21.751C233.721 19.6255 233.219 17.9972 232.271 16.866C231.331 15.7258 229.999 15.1556 228.275 15.1556C226.524 15.1556 225.165 15.7394 224.198 16.9071C223.231 18.0656 222.747 19.6985 222.747 21.8057C222.747 23.913 223.231 25.5504 224.198 26.718C225.165 27.8766 226.524 28.4558 228.275 28.4558C229.498 28.4558 230.569 28.1685 231.491 27.5938C232.412 27.0191 233.146 26.1935 233.694 25.1171L234.652 25.6644C234.05 26.9233 233.197 27.8948 232.093 28.579C230.989 29.2631 229.717 29.6052 228.275 29.6052ZM222.255 22.1341V20.9847H234.296V22.1341H222.255Z" fill="white"/>
<path d="M206.154 29.1947V9.49072H213.406C213.598 9.49072 213.794 9.49984 213.995 9.51809C214.196 9.52721 214.419 9.55458 214.665 9.60019C215.614 9.74615 216.435 10.0928 217.128 10.6401C217.831 11.1783 218.369 11.8625 218.743 12.6926C219.126 13.5136 219.318 14.4167 219.318 15.4019C219.318 16.8067 218.935 18.0382 218.168 19.0964C217.402 20.1546 216.362 20.8296 215.048 21.1216L214.83 21.3131H207.304V29.1947H206.154ZM218.497 29.1947L214.611 21.1763L215.596 20.4374L219.865 29.1947H218.497ZM207.304 20.1637H213.406C213.562 20.1637 213.744 20.1546 213.954 20.1364C214.173 20.1181 214.392 20.0907 214.611 20.0543C215.368 19.9083 216.002 19.6073 216.513 19.1512C217.033 18.695 217.425 18.1431 217.689 17.4955C217.954 16.8387 218.086 16.1408 218.086 15.4019C218.086 14.663 217.954 13.9697 217.689 13.3221C217.425 12.6653 217.033 12.1088 216.513 11.6527C216.002 11.1966 215.368 10.8955 214.611 10.7496C214.392 10.704 214.173 10.6766 213.954 10.6675C213.744 10.6492 213.562 10.6401 213.406 10.6401H207.304V20.1637Z" fill="white"/>
</svg>
